<svg xmlns="http://www.w3.org/2000/svg" viewBox="0 0 32 32"><defs><radialGradient id="b" cx="50%" cy="50%" r="70%"><stop offset="0" stop-color="#1B1640"/><stop offset="1" stop-color="#07060C"/></radialGradient><radialGradient id="g"><stop offset=".55" stop-color="#7C6BFF" stop-opacity="0"/><stop offset=".74" stop-color="#B8ADFF" stop-opacity=".95"/><stop offset=".84" stop-color="#7C6BFF" stop-opacity=".3"/><stop offset="1" stop-color="#7C6BFF" stop-opacity="0"/></radialGradient></defs><rect width="32" height="32" rx="8" fill="url(#b)"/><circle cx="16" cy="16" r="15.5" fill="url(#g)"/><circle cx="16" cy="16" r="11.2" fill="#14122A"/><path d="M16 16L16.00 6.40A9.6 9.6 0 0 1 22.79 9.21Z" fill="#7C6BFF"/><path d="M16 16L22.79 9.21A9.6 9.6 0 0 1 25.60 16.00Z" fill="#2A2550"/><path d="M16 16L25.60 16.00A9.6 9.6 0 0 1 22.79 22.79Z" fill="#7C6BFF"/><path d="M16 16L22.79 22.79A9.6 9.6 0 0 1 16.00 25.60Z" fill="#2A2550"/><path d="M16 16L16.00 25.60A9.6 9.6 0 0 1 9.21 22.79Z" fill="#7C6BFF"/><path d="M16 16L9.21 22.79A9.6 9.6 0 0 1 6.40 16.00Z" fill="#2A2550"/><path d="M16 16L6.40 16.00A9.6 9.6 0 0 1 9.21 9.21Z" fill="#7C6BFF"/><path d="M16 16L9.21 9.21A9.6 9.6 0 0 1 16.00 6.40Z" fill="#2A2550"/><circle cx="16" cy="16" r="3" fill="#fff"/><path d="M16 9.2 13.3 3.6a3 3 0 1 1 5.4 0Z" fill="#fff" stroke="#0C0B12" stroke-width=".7"/></svg>
